<svg width="210" height="210" viewBox="0 0 210 210" fill="none" xmlns="http://www.w3.org/2000/svg">
<circle cx="105" cy="105" r="105" fill="black"/>
<path d="M104.378 121.292C109.097 121.292 113.623 119.418 116.96 116.081C120.297 112.744 122.171 108.218 122.171 103.499C122.171 98.7801 120.297 94.2544 116.96 90.9175C113.623 87.5807 109.097 85.7061 104.378 85.7061C99.659 85.7061 95.1333 87.5807 91.7964 90.9175C88.4596 94.2544 86.585 98.7801 86.585 103.499C86.585 108.218 88.4596 112.744 91.7964 116.081C95.1333 119.418 99.659 121.292 104.378 121.292Z" stroke="white" stroke-width="6.67241" stroke-linecap="round" stroke-linejoin="round"/>
<path d="M64.3418 121.298V85.7121C64.3418 79.8133 66.6851 74.1561 70.8561 69.9851C75.0272 65.814 80.6844 63.4707 86.5832 63.4707H122.169C128.068 63.4707 133.725 65.814 137.896 69.9851C142.067 74.1561 144.411 79.8133 144.411 85.7121V121.298C144.411 127.197 142.067 132.854 137.896 137.025C133.725 141.196 128.068 143.54 122.169 143.54H86.5832C80.6844 143.54 75.0272 141.196 70.8561 137.025C66.6851 132.854 64.3418 127.197 64.3418 121.298Z" stroke="white" stroke-width="6.67241"/>
<path d="M128.843 79.0809L128.886 79.0332" stroke="white" stroke-width="6.67241" stroke-linecap="round" stroke-linejoin="round"/>
<rect x="93.2588" y="39" width="6.67241" height="24.4655" fill="white"/>
<rect x="93.2588" y="143.537" width="6.67241" height="24.4655" fill="white"/>
<rect x="108.823" y="39" width="6.67241" height="24.4655" fill="white"/>
<rect x="108.823" y="143.537" width="6.67241" height="24.4655" fill="white"/>
</svg>
