<svg width="17" height="17" viewBox="0 0 17 17" fill="none" xmlns="http://www.w3.org/2000/svg">
<path d="M9.52716 1.59375C9.06926 1.59378 8.63012 1.7757 8.30635 2.0995L2.10135 8.3045C1.77759 8.62829 1.5957 9.06743 1.5957 9.52531C1.5957 9.9832 1.77759 10.4223 2.10135 10.7461L6.25466 14.8994C6.53504 15.1798 6.90339 15.3552 7.29782 15.396C7.69224 15.4368 8.0887 15.3407 8.42057 15.1236C8.20411 14.8411 8.01986 14.5354 7.87126 14.212C7.74334 14.3069 7.58556 14.3527 7.4267 14.341C7.26784 14.3293 7.11847 14.2609 7.00585 14.1482L2.85254 9.99494C2.79086 9.93327 2.74192 9.86006 2.70854 9.77948C2.67516 9.6989 2.65798 9.61253 2.65798 9.52531C2.65798 9.43809 2.67516 9.35173 2.70854 9.27115C2.74192 9.19057 2.79086 9.11735 2.85254 9.05569L9.05754 2.85069C9.11921 2.78903 9.19243 2.74012 9.27301 2.70676C9.35359 2.6734 9.43995 2.65623 9.52716 2.65625H13.6805C14.047 2.65625 14.3445 2.95375 14.3445 3.32031V7.47362C14.3445 7.61812 14.2978 7.75731 14.2117 7.87206C14.5353 8.02063 14.8412 8.20488 15.1239 8.42138C15.3087 8.13983 15.4071 7.8104 15.407 7.47362V3.32031C15.407 3.09358 15.3624 2.86906 15.2756 2.65959C15.1888 2.45011 15.0617 2.25977 14.9013 2.09945C14.741 1.93912 14.5507 1.81194 14.3412 1.72518C14.1317 1.63841 13.9072 1.59375 13.6805 1.59375H9.52716ZM12.2195 5.84375C12.5013 5.84375 12.7716 5.73181 12.9708 5.53255C13.1701 5.33329 13.282 5.06304 13.282 4.78125C13.282 4.49946 13.1701 4.22921 12.9708 4.02995C12.7716 3.83069 12.5013 3.71875 12.2195 3.71875C11.9377 3.71875 11.6675 3.83069 11.4682 4.02995C11.269 4.22921 11.157 4.49946 11.157 4.78125C11.157 5.06304 11.269 5.33329 11.4682 5.53255C11.6675 5.73181 11.9377 5.84375 12.2195 5.84375ZM16.2028 12.2188C16.2028 13.2755 15.7831 14.2889 15.0359 15.0361C14.2886 15.7833 13.2752 16.2031 12.2185 16.2031C11.1618 16.2031 10.1483 15.7833 9.4011 15.0361C8.65388 14.2889 8.2341 13.2755 8.2341 12.2188C8.2341 11.162 8.65388 10.1486 9.4011 9.40137C10.1483 8.65416 11.1618 8.23438 12.2185 8.23438C13.2752 8.23438 14.2886 8.65416 15.0359 9.40137C15.7831 10.1486 16.2028 11.162 16.2028 12.2188ZM12.2185 15.4062C12.3594 15.4062 12.4945 15.3503 12.5941 15.2507C12.6938 15.151 12.7497 15.0159 12.7497 14.875C12.7497 14.7341 12.6938 14.599 12.5941 14.4993C12.4945 14.3997 12.3594 14.3438 12.2185 14.3438C12.0776 14.3438 11.9425 14.3997 11.8428 14.4993C11.7432 14.599 11.6872 14.7341 11.6872 14.875C11.6872 15.0159 11.7432 15.151 11.8428 15.2507C11.9425 15.3503 12.0776 15.4062 12.2185 15.4062ZM11.633 10.625C11.7584 10.4683 11.9438 10.3594 12.2185 10.3594C12.5234 10.3594 12.7099 10.4582 12.822 10.5798C12.9394 10.7073 13.0153 10.9018 13.0153 11.1562C13.0153 11.4957 12.8533 11.6519 12.5425 11.9457C12.2312 12.2395 11.82 12.64 11.82 13.4141C11.82 13.5197 11.862 13.6211 11.9367 13.6958C12.0115 13.7705 12.1128 13.8125 12.2185 13.8125C12.3241 13.8125 12.4255 13.7705 12.5002 13.6958C12.5749 13.6211 12.6169 13.5197 12.6169 13.4141C12.6169 12.9928 12.8028 12.7957 13.0897 12.5248L13.1296 12.4876C13.4149 12.2193 13.8122 11.8469 13.8122 11.1562C13.8122 10.7472 13.689 10.3434 13.4079 10.0396C13.1216 9.72931 12.7104 9.5625 12.2185 9.5625C11.6963 9.5625 11.284 9.78562 11.0109 10.1272C10.7453 10.4587 10.6247 10.8827 10.6247 11.2891C10.6247 11.3947 10.6667 11.4961 10.7414 11.5708C10.8161 11.6455 10.9175 11.6875 11.0232 11.6875C11.1288 11.6875 11.2302 11.6455 11.3049 11.5708C11.3796 11.4961 11.4216 11.3947 11.4216 11.2891C11.4216 11.0314 11.4997 10.7918 11.633 10.625Z" fill="white" fill-opacity="0.49"/>
</svg>
