<svg width="20" height="20" viewBox="0 0 20 20" fill="none" xmlns="http://www.w3.org/2000/svg">
<g clip-path="url(#clip0_208_1281)">
<path d="M10.0078 1.5835C14.6827 1.5835 18.4228 5.22986 18.4229 9.65576C18.4229 14.0806 14.674 17.728 9.99805 17.728C9.22117 17.728 8.4831 17.6288 7.77246 17.4399C7.66604 17.4117 7.55479 17.407 7.44727 17.4263L7.3418 17.4536L4.7041 18.3354L4.8418 16.4565C4.85957 16.2116 4.75635 15.9733 4.56543 15.8188C2.73252 14.3363 1.58301 12.1272 1.58301 9.65576C1.58302 5.23037 5.32259 1.5835 10.0078 1.5835Z" stroke="white" stroke-width="1.5" stroke-linejoin="round"/>
<path d="M8.45785 7.3293C8.51814 7.33799 8.56838 7.34668 8.62867 7.35537C9.52298 7.54655 10.4374 8.36344 11.1408 8.8501C11.5327 9.12819 11.8642 9.10212 12.2561 8.84141C13.0901 8.26785 13.9543 7.72036 14.8084 7.15549C15.0395 6.99906 15.2807 6.83395 15.562 7.04252C15.8735 7.26846 15.6826 7.51179 15.5219 7.73774C14.6778 8.90224 13.8438 10.0667 12.9897 11.2226C12.4069 12.0221 11.5829 12.135 10.6986 11.5702C10.0857 11.1704 9.45264 10.7967 8.84974 10.3796C8.4478 10.1015 8.11621 10.1363 7.73437 10.397C6.89031 10.9705 6.03619 11.518 5.18208 12.0829C4.95097 12.2393 4.70981 12.4044 4.42846 12.1872C4.1471 11.9786 4.29783 11.744 4.44855 11.5267C5.32276 10.3274 6.18692 9.12819 7.06113 7.92893C7.35253 7.52048 7.89514 7.27715 8.45785 7.3293Z" fill="white"/>
</g>
<defs>
<clipPath id="clip0_208_1281">
<rect width="20" height="20" fill="white"/>
</clipPath>
</defs>
</svg>
