<svg width="78" height="25" viewBox="0 0 78 25" fill="none" xmlns="http://www.w3.org/2000/svg">
<path d="M15.521 1.72229C15.4972 1.74601 15.4616 1.80532 15.4142 1.9002C15.3905 1.99508 15.3786 2.16113 15.3786 2.39834C15.3786 2.73043 15.4261 3.05067 15.521 3.35904V15.1365C15.521 16.3463 15.4023 17.5086 15.1651 18.6235C14.9279 19.7384 14.5128 20.7346 13.9198 21.6123C13.3505 22.4663 12.5558 23.1423 11.5358 23.6405C10.5395 24.1623 9.25862 24.4233 7.69303 24.4233H7.23047C5.87838 24.4233 4.77535 24.2335 3.9214 23.854C3.09116 23.4981 2.43884 23.0356 1.96442 22.4663C1.49 21.897 1.16977 21.2802 1.00372 20.616C0.837673 19.9281 0.754649 19.2758 0.754649 18.6591C0.754649 18.1372 0.825812 17.6391 0.968138 17.1646C1.08674 16.6665 1.27651 16.2395 1.53744 15.8837C1.77465 15.5042 2.07116 15.2077 2.42698 14.9942C2.78279 14.757 3.18605 14.6384 3.63675 14.6384C4.06372 14.6384 4.33652 14.757 4.45512 14.9942C4.57372 15.2077 4.63303 15.433 4.63303 15.6702C4.63303 16.1921 4.52628 16.6309 4.31279 16.9867C4.09931 17.3188 3.8621 17.6153 3.60117 17.8763C3.36396 18.1372 3.13861 18.3981 2.92512 18.6591C2.71163 18.92 2.60488 19.2402 2.60488 19.6198C2.60488 20.7584 2.98442 21.5767 3.74349 22.0749C4.50256 22.573 5.4514 22.8221 6.59001 22.8221C7.58629 22.8221 8.4521 22.6205 9.18745 22.2172C9.9228 21.814 10.5277 21.304 11.0021 20.6872C11.5002 20.0705 11.8679 19.4063 12.1051 18.6946C12.3423 17.9593 12.4609 17.2714 12.4609 16.6309L11.9272 16.6665C11.0733 16.6665 10.3261 16.4767 9.68559 16.0972C9.06885 15.6939 8.54699 15.1958 8.12001 14.6028C7.71675 14.0098 7.40838 13.3693 7.19489 12.6814C7.00512 11.9935 6.91024 11.353 6.91024 10.76V9.51463C6.91024 9.06393 6.96954 8.54207 7.08815 7.94905C7.20675 7.3323 7.3728 6.7037 7.58629 6.06323C7.79978 5.39904 8.06071 4.75858 8.36908 4.14183C8.67745 3.50137 9.00955 2.93206 9.36536 2.43392C9.72117 1.93578 10.1007 1.53253 10.504 1.22415C10.9072 0.915781 11.3223 0.761595 11.7493 0.761595C11.9154 0.761595 12.1051 0.797176 12.3186 0.868338L14.8093 1.04625C14.9754 1.06997 15.1296 1.12927 15.2719 1.22415C15.4379 1.31904 15.521 1.48508 15.521 1.72229ZM12.4609 5.99207C12.5084 5.8023 12.5558 5.62439 12.6033 5.45835C12.6507 5.2923 12.6744 5.10253 12.6744 4.88904C12.6744 4.58067 12.5914 4.30788 12.4254 4.07067C12.283 3.80974 12.0102 3.67927 11.607 3.67927C11.0851 3.67927 10.6582 3.89276 10.3261 4.31974C9.99397 4.74672 9.73304 5.25672 9.54327 5.84974C9.37722 6.44277 9.25862 7.05951 9.18745 7.69998C9.11629 8.34044 9.08071 8.8623 9.08071 9.26556C9.08071 9.57393 9.10443 10.0246 9.15187 10.6177C9.19931 11.187 9.30606 11.7563 9.4721 12.3256C9.66187 12.8949 9.91094 13.393 10.2193 13.82C10.5514 14.247 10.9902 14.4605 11.5358 14.4605C11.5833 14.4605 11.7137 14.4486 11.9272 14.4249C12.1644 14.4011 12.3423 14.3656 12.4609 14.3181V5.99207ZM23.6844 15.2432C23.3286 15.7414 23.0321 16.2988 22.7949 16.9156C22.5814 17.5086 22.3916 18.1372 22.2256 18.8014C22.0595 19.4419 21.9172 20.0942 21.7986 20.7584C21.7037 21.3988 21.5969 22.0156 21.4783 22.6086C21.4309 22.7509 21.2411 22.8458 20.909 22.8933C20.6007 22.9407 20.3753 22.9644 20.233 22.9644C19.806 22.9644 19.4502 22.9407 19.1655 22.8933C18.9046 22.8458 18.703 22.7391 18.5607 22.573C18.4183 22.3833 18.3116 22.1105 18.2404 21.7546C18.1693 21.3751 18.11 20.877 18.0625 20.2602L18.5251 9.69254C18.5251 9.38417 18.6911 9.22998 19.0232 9.22998C19.1418 9.22998 19.3079 9.2537 19.5214 9.30114C19.7348 9.32486 19.9602 9.37231 20.1974 9.44347C20.4346 9.51463 20.6362 9.60951 20.8023 9.72812C20.9683 9.823 21.0514 9.94161 21.0514 10.0839V17.307C21.0751 17.2832 21.1107 17.1884 21.1581 17.0223C21.3242 16.5953 21.5258 16.0735 21.763 15.4567C22.0002 14.8163 22.2611 14.2114 22.5458 13.6421C22.8304 13.0728 23.1269 12.5865 23.4353 12.1832C23.7674 11.78 24.0995 11.5784 24.4316 11.5784C24.8586 11.5784 25.1788 11.6851 25.3923 11.8986C25.6295 12.0884 25.8074 12.3374 25.926 12.6458C26.0446 12.9542 26.1158 13.2863 26.1395 13.6421C26.1632 13.9979 26.1751 14.3418 26.1751 14.6739C26.1751 14.9112 26.1514 15.3025 26.1039 15.8481C26.0565 16.3937 26.0328 17.2121 26.0328 18.3032C26.0328 18.92 26.0921 19.4774 26.2107 19.9756C26.3293 20.4737 26.5665 20.7228 26.9223 20.7228C27.1832 20.7228 27.4204 20.6042 27.6339 20.367C27.8474 20.1298 28.0372 19.8333 28.2032 19.4774C28.393 19.1216 28.5472 18.7421 28.6658 18.3388C28.7844 17.9356 28.8556 17.556 28.8793 17.2002C28.903 16.7495 29.0809 16.5242 29.413 16.5242C29.6265 16.5242 29.7688 16.5953 29.84 16.7377C29.9111 16.88 29.9467 17.046 29.9467 17.2358V17.307C29.923 17.7814 29.8281 18.3151 29.6621 18.9081C29.5197 19.5012 29.2944 20.0586 28.986 20.5805C28.7014 21.1023 28.3218 21.5412 27.8474 21.897C27.373 22.2528 26.7918 22.4307 26.1039 22.4307C25.0365 22.4307 24.3486 22.0512 24.0402 21.2921C23.7556 20.5093 23.6132 19.3588 23.6132 17.8407L23.6844 15.2432ZM37.55 20.794C37.55 21.3633 37.3603 21.8021 36.9807 22.1105C36.6012 22.4188 36.1624 22.6442 35.6642 22.7865C35.1898 22.9288 34.7035 23.0119 34.2054 23.0356C33.731 23.083 33.387 23.1067 33.1735 23.1067C32.8414 23.1067 32.4263 23.0712 31.9282 23C31.4537 22.9288 30.9793 22.8221 30.5049 22.6798C30.0542 22.5137 29.6628 22.2884 29.3307 22.0037C29.0223 21.7191 28.8682 21.3633 28.8682 20.9363C28.8682 20.6753 28.963 20.4974 29.1528 20.4026C29.3663 20.2839 29.5679 20.2246 29.7577 20.2246C30.0186 20.2246 30.2677 20.3195 30.5049 20.5093C30.7658 20.6991 31.0268 20.9007 31.2877 21.1142C31.5724 21.3277 31.8807 21.5293 32.2128 21.7191C32.5449 21.9088 32.9244 22.0037 33.3514 22.0037C33.5412 22.0037 33.7903 21.9444 34.0986 21.8258C34.4307 21.6835 34.5968 21.4463 34.5968 21.1142C34.5968 20.7821 34.4545 20.4619 34.1698 20.1535C33.9089 19.8451 33.5649 19.5249 33.1379 19.1928C32.7347 18.8607 32.2958 18.5167 31.8214 18.1609C31.347 17.8051 30.8963 17.4256 30.4693 17.0223C30.0661 16.5953 29.7221 16.1328 29.4375 15.6346C29.1765 15.1365 29.0461 14.5909 29.0461 13.9979C29.0461 13.1677 29.307 12.4679 29.8289 11.8986C30.3744 11.3293 31.003 10.8786 31.7147 10.5465C32.45 10.2144 33.1972 9.97719 33.9563 9.83486C34.7154 9.69254 35.3084 9.62138 35.7354 9.62138C36.1386 9.62138 36.5419 9.7044 36.9452 9.87045C37.3484 10.0365 37.55 10.3567 37.55 10.8311C37.55 10.9735 37.5145 11.187 37.4433 11.4716C37.3959 11.7325 37.301 11.9935 37.1586 12.2544C37.04 12.5153 36.874 12.7525 36.6605 12.966C36.447 13.1558 36.1742 13.2507 35.8421 13.2507C35.7472 13.2507 35.6524 13.2151 35.5575 13.1439C35.4626 13.0491 35.3558 12.9542 35.2372 12.8593C35.1186 12.7407 34.9882 12.6458 34.8458 12.5746C34.7272 12.4798 34.5849 12.4323 34.4189 12.4323C33.5886 12.4323 33.0075 12.6814 32.6754 13.1795C32.3433 13.6539 32.1772 14.1639 32.1772 14.7095C32.1772 15.1839 32.45 15.6821 32.9956 16.2039C33.5649 16.7258 34.1817 17.2477 34.8458 17.7695C35.5338 18.2914 36.1505 18.8132 36.6961 19.3351C37.2654 19.8333 37.55 20.3195 37.55 20.794ZM38.3164 16.5598C38.3401 15.35 38.3757 14.1165 38.4232 12.8593C38.4706 11.6021 38.5181 10.4397 38.5655 9.3723C38.5655 9.18254 38.3757 9.05207 37.9962 8.98091C37.6167 8.90975 37.1897 8.83858 36.7153 8.76742C36.2408 8.69626 35.8139 8.58951 35.4343 8.44719C35.0548 8.28114 34.865 8.02021 34.865 7.6644C34.865 7.35602 35.1734 7.17812 35.7901 7.13067C36.4069 7.08323 37.3201 7.05951 38.5299 7.05951C38.6248 7.05951 38.6841 6.91719 38.7078 6.63253C38.7553 6.34788 38.779 5.99207 38.779 5.56509C38.8027 5.11439 38.8146 4.63997 38.8146 4.14183C38.8383 3.64369 38.862 3.18113 38.8857 2.75416C38.9095 2.30346 38.945 1.93578 38.9925 1.65113C39.0636 1.36648 39.1467 1.22415 39.2415 1.22415C39.3601 1.22415 39.5736 1.24787 39.882 1.29532C40.1904 1.34276 40.5106 1.41392 40.8427 1.5088C41.1748 1.57997 41.4595 1.67485 41.6967 1.79346C41.9576 1.91206 42.0881 2.04253 42.0881 2.18485L41.6967 6.81044C41.6967 6.95277 41.8153 7.05951 42.0525 7.13067C42.3134 7.17812 42.6336 7.2137 43.0132 7.23742C43.4164 7.23742 43.8316 7.23742 44.2585 7.23742C44.7092 7.23742 45.1243 7.273 45.5039 7.34416C45.9071 7.41533 46.2274 7.53393 46.4646 7.69998C46.7255 7.8423 46.856 8.06765 46.856 8.37602C46.856 8.42347 46.8323 8.50649 46.7848 8.62509C46.7374 8.71998 46.6781 8.76742 46.6069 8.76742C46.5595 8.76742 46.4883 8.73184 46.3934 8.66068C46.3223 8.58951 46.1088 8.55393 45.7529 8.55393C45.6581 8.55393 45.3971 8.56579 44.9702 8.58951C44.5432 8.61323 44.0925 8.64882 43.6181 8.69626C43.1436 8.7437 42.7048 8.803 42.3015 8.87416C41.922 8.92161 41.7085 8.99277 41.6611 9.08765C41.6374 9.13509 41.6018 9.41975 41.5543 9.94161C41.5306 10.4397 41.495 11.1039 41.4476 11.9342C41.4239 12.7644 41.4002 13.7251 41.3764 14.8163C41.3527 15.8837 41.3408 17.0105 41.3408 18.1965C41.3408 18.6472 41.3646 19.086 41.412 19.513C41.4595 19.94 41.5306 20.3314 41.6255 20.6872C41.7204 21.0193 41.839 21.2921 41.9813 21.5056C42.1474 21.7191 42.3371 21.8258 42.5506 21.8258C42.859 21.8258 43.1436 21.6953 43.4046 21.4344C43.6655 21.1735 43.9027 20.8177 44.1162 20.367C44.3297 19.9163 44.5195 19.4063 44.6855 18.837C44.8516 18.2677 44.9939 17.6865 45.1125 17.0935C45.1836 16.7377 45.2667 16.4886 45.3616 16.3463C45.4564 16.1802 45.5988 16.0972 45.7885 16.0972C45.9546 16.0972 46.0969 16.1565 46.2155 16.2751C46.3578 16.37 46.429 16.6072 46.429 16.9867C46.429 17.2239 46.4171 17.3781 46.3934 17.4493C46.3223 17.8763 46.1799 18.4693 45.9664 19.2284C45.7767 19.9637 45.5039 20.6991 45.1481 21.4344C44.816 22.146 44.4009 22.7747 43.9027 23.3202C43.4046 23.8658 42.8234 24.1386 42.1592 24.1386C41.5188 24.1386 40.9613 23.9488 40.4869 23.5693C40.0125 23.2135 39.6092 22.7153 39.2771 22.0749C38.9688 21.4107 38.7315 20.6398 38.5655 19.7621C38.3994 18.8607 38.3164 17.9 38.3164 16.88V16.5598ZM59.4312 19.1216C59.3838 19.4537 59.2652 19.8451 59.0754 20.2958C58.8857 20.7465 58.6366 21.1853 58.3282 21.6123C58.0436 22.0156 57.6996 22.3595 57.2964 22.6442C56.9168 22.9288 56.4898 23.0712 56.0154 23.0712C55.3038 23.0712 54.6752 22.7984 54.1296 22.2528C53.6077 21.7072 53.2875 20.9363 53.1689 19.94C53.0266 20.3195 52.8605 20.7584 52.6708 21.2565C52.481 21.7546 52.2438 22.2172 51.9591 22.6442C51.6745 23.0712 51.3424 23.427 50.9629 23.7116C50.607 24.02 50.1801 24.1742 49.6819 24.1742C49.5396 24.1742 49.4329 24.1623 49.3617 24.1386C49.2905 24.1149 49.2075 24.0793 49.1126 24.0319C49.0415 24.0081 48.9466 23.9844 48.828 23.9607C48.7331 23.937 48.5908 23.9251 48.401 23.9251C47.8317 23.9251 47.3454 23.7353 46.9421 23.3558C46.5626 23 46.2542 22.5374 46.017 21.9681C45.7798 21.3988 45.6019 20.7821 45.4833 20.1179C45.3884 19.43 45.341 18.7895 45.341 18.1965C45.341 16.7732 45.4121 15.4212 45.5545 14.1402C45.7205 12.8593 45.9815 11.7325 46.3373 10.76C46.6931 9.7637 47.1556 8.98091 47.7249 8.41161C48.2942 7.81858 48.9822 7.52207 49.7887 7.52207C50.2631 7.52207 50.6189 7.56951 50.8561 7.6644C51.117 7.73556 51.3542 7.83044 51.5677 7.94905C51.7812 8.04393 52.0066 8.15067 52.2438 8.26928C52.5047 8.38788 52.8605 8.48277 53.3112 8.55393C53.8094 8.83858 54.1533 9.18254 54.3431 9.58579C54.5566 9.96533 54.687 10.3804 54.7345 10.8311C54.8056 11.2818 54.8294 11.7563 54.8056 12.2544C54.7819 12.7288 54.8057 13.2032 54.8768 13.6777C54.8768 13.7014 54.9243 13.737 55.0191 13.7844C55.1377 13.8318 55.2682 13.8911 55.4105 13.9623C55.5529 14.0098 55.6715 14.0928 55.7663 14.2114C55.885 14.3063 55.9443 14.4367 55.9443 14.6028V14.7451C55.707 15.3618 55.5647 15.9074 55.5173 16.3819C55.4698 16.8563 55.4461 17.4256 55.4461 18.0898C55.4461 18.4219 55.458 18.7895 55.4817 19.1928C55.5291 19.5723 55.5884 19.94 55.6596 20.2958C55.7545 20.6279 55.885 20.9126 56.051 21.1498C56.217 21.3633 56.4305 21.47 56.6915 21.47C56.9761 21.47 57.2252 21.3277 57.4387 21.043C57.6759 20.7584 57.8657 20.4381 58.008 20.0823C58.174 19.7028 58.3045 19.3233 58.3994 18.9437C58.518 18.5642 58.5891 18.2795 58.6129 18.0898C58.6603 17.8051 58.7789 17.6628 58.9687 17.6628C59.0873 17.6628 59.194 17.7339 59.2889 17.8763C59.4075 17.9949 59.4668 18.2202 59.4668 18.5523C59.4668 18.6472 59.4668 18.7421 59.4668 18.837C59.4668 18.9081 59.455 19.003 59.4312 19.1216ZM52.8487 13.3574C52.8487 13.0965 52.8249 12.7881 52.7775 12.4323C52.7301 12.0765 52.647 11.7444 52.5284 11.436C52.4098 11.1277 52.2319 10.8667 51.9947 10.6532C51.7575 10.4397 51.4373 10.333 51.034 10.333C50.3698 10.333 49.8242 10.6414 49.3973 11.2581C48.994 11.8511 48.6738 12.5628 48.4366 13.393C48.1994 14.1995 48.0452 15.0416 47.974 15.9193C47.9028 16.7732 47.8673 17.4493 47.8673 17.9474C47.8673 18.327 47.8791 18.7895 47.9028 19.3351C47.9503 19.857 48.0215 20.3551 48.1163 20.8295C48.2112 21.304 48.3417 21.7072 48.5077 22.0393C48.6975 22.3714 48.9347 22.5374 49.2194 22.5374C49.9073 22.5374 50.4291 22.2765 50.7849 21.7546C51.1645 21.2091 51.4491 20.5449 51.6389 19.7621C51.8287 18.9556 51.9591 18.1016 52.0303 17.2002C52.1252 16.2751 52.2082 15.433 52.2794 14.6739C52.3268 14.2707 52.4336 14.0216 52.5996 13.9267C52.7656 13.8081 52.8487 13.7251 52.8487 13.6777V13.3574ZM63.8178 15.2432C63.4619 15.7414 63.1654 16.2988 62.9282 16.9156C62.7147 17.5086 62.525 18.1372 62.3589 18.8014C62.1929 19.4419 62.0505 20.0942 61.9319 20.7584C61.8371 21.3988 61.7303 22.0156 61.6117 22.6086C61.5643 22.7509 61.3745 22.8458 61.0424 22.8933C60.734 22.9407 60.5087 22.9644 60.3664 22.9644C59.9394 22.9644 59.5836 22.9407 59.2989 22.8933C59.038 22.8458 58.8364 22.7391 58.694 22.573C58.5517 22.3833 58.445 22.1105 58.3738 21.7546C58.3026 21.3751 58.2433 20.877 58.1959 20.2602L58.6585 9.69254C58.6585 9.38417 58.8245 9.22998 59.1566 9.22998C59.2752 9.22998 59.4412 9.2537 59.6547 9.30114C59.8682 9.32486 60.0936 9.37231 60.3308 9.44347C60.568 9.51463 60.7696 9.60951 60.9357 9.72812C61.1017 9.823 61.1847 9.94161 61.1847 10.0839V17.307C61.2085 17.2832 61.244 17.1884 61.2915 17.0223C61.4575 16.5953 61.6592 16.0735 61.8964 15.4567C62.1336 14.8163 62.3945 14.2114 62.6792 13.6421C62.9638 13.0728 63.2603 12.5865 63.5687 12.1832C63.9008 11.78 64.2329 11.5784 64.565 11.5784C64.9919 11.5784 65.3122 11.6851 65.5257 11.8986C65.7629 12.0884 65.9408 12.3374 66.0594 12.6458C66.178 12.9542 66.2492 13.2863 66.2729 13.6421C66.2966 13.9979 66.3085 14.3418 66.3085 14.6739C66.3085 14.9112 66.2847 15.3025 66.2373 15.8481C66.1899 16.3937 66.1661 17.2121 66.1661 18.3032C66.1661 18.92 66.2254 19.4774 66.344 19.9756C66.4626 20.4737 66.6999 20.7228 67.0557 20.7228C67.3166 20.7228 67.5538 20.6042 67.7673 20.367C67.9808 20.1298 68.1706 19.8333 68.3366 19.4774C68.5264 19.1216 68.6806 18.7421 68.7992 18.3388C68.9178 17.9356 68.9889 17.556 69.0127 17.2002C69.0364 16.7495 69.2143 16.5242 69.5464 16.5242C69.7599 16.5242 69.9022 16.5953 69.9734 16.7377C70.0445 16.88 70.0801 17.046 70.0801 17.2358V17.307C70.0564 17.7814 69.9615 18.3151 69.7954 18.9081C69.6531 19.5012 69.4278 20.0586 69.1194 20.5805C68.8347 21.1023 68.4552 21.5412 67.9808 21.897C67.5064 22.2528 66.9252 22.4307 66.2373 22.4307C65.1699 22.4307 64.4819 22.0512 64.1736 21.2921C63.8889 20.5093 63.7466 19.3588 63.7466 17.8407L63.8178 15.2432ZM68.6857 16.5598C68.7095 15.35 68.745 14.1165 68.7925 12.8593C68.8399 11.6021 68.8874 10.4397 68.9348 9.3723C68.9348 9.18254 68.745 9.05207 68.3655 8.98091C67.986 8.90975 67.559 8.83858 67.0846 8.76742C66.6102 8.69626 66.1832 8.58951 65.8036 8.44719C65.4241 8.28114 65.2343 8.02021 65.2343 7.6644C65.2343 7.35602 65.5427 7.17812 66.1595 7.13067C66.7762 7.08323 67.6895 7.05951 68.8992 7.05951C68.9941 7.05951 69.0534 6.91719 69.0771 6.63253C69.1246 6.34788 69.1483 5.99207 69.1483 5.56509C69.172 5.11439 69.1839 4.63997 69.1839 4.14183C69.2076 3.64369 69.2313 3.18113 69.255 2.75416C69.2788 2.30346 69.3144 1.93578 69.3618 1.65113C69.433 1.36648 69.516 1.22415 69.6109 1.22415C69.7295 1.22415 69.943 1.24787 70.2513 1.29532C70.5597 1.34276 70.8799 1.41392 71.212 1.5088C71.5441 1.57997 71.8288 1.67485 72.066 1.79346C72.3269 1.91206 72.4574 2.04253 72.4574 2.18485L72.066 6.81044C72.066 6.95277 72.1846 7.05951 72.4218 7.13067C72.6827 7.17812 73.003 7.2137 73.3825 7.23742C73.7858 7.23742 74.2009 7.23742 74.6278 7.23742C75.0785 7.23742 75.4937 7.273 75.8732 7.34416C76.2765 7.41533 76.5967 7.53393 76.8339 7.69998C77.0948 7.8423 77.2253 8.06765 77.2253 8.37602C77.2253 8.42347 77.2016 8.50649 77.1541 8.62509C77.1067 8.71998 77.0474 8.76742 76.9762 8.76742C76.9288 8.76742 76.8576 8.73184 76.7627 8.66068C76.6916 8.58951 76.4781 8.55393 76.1223 8.55393C76.0274 8.55393 75.7665 8.56579 75.3395 8.58951C74.9125 8.61323 74.4618 8.64882 73.9874 8.69626C73.513 8.7437 73.0741 8.803 72.6709 8.87416C72.2913 8.92161 72.0778 8.99277 72.0304 9.08765C72.0067 9.13509 71.9711 9.41975 71.9237 9.94161C71.8999 10.4397 71.8644 11.1039 71.8169 11.9342C71.7932 12.7644 71.7695 13.7251 71.7458 14.8163C71.722 15.8837 71.7102 17.0105 71.7102 18.1965C71.7102 18.6472 71.7339 19.086 71.7813 19.513C71.8288 19.94 71.8999 20.3314 71.9948 20.6872C72.0897 21.0193 72.2083 21.2921 72.3506 21.5056C72.5167 21.7191 72.7064 21.8258 72.9199 21.8258C73.2283 21.8258 73.513 21.6953 73.7739 21.4344C74.0348 21.1735 74.272 20.8177 74.4855 20.367C74.699 19.9163 74.8888 19.4063 75.0548 18.837C75.2209 18.2677 75.3632 17.6865 75.4818 17.0935C75.553 16.7377 75.636 16.4886 75.7309 16.3463C75.8258 16.1802 75.9681 16.0972 76.1579 16.0972C76.3239 16.0972 76.4662 16.1565 76.5848 16.2751C76.7272 16.37 76.7983 16.6072 76.7983 16.9867C76.7983 17.2239 76.7865 17.3781 76.7627 17.4493C76.6916 17.8763 76.5492 18.4693 76.3358 19.2284C76.146 19.9637 75.8732 20.6991 75.5174 21.4344C75.1853 22.146 74.7702 22.7747 74.272 23.3202C73.7739 23.8658 73.1927 24.1386 72.5285 24.1386C71.8881 24.1386 71.3306 23.9488 70.8562 23.5693C70.3818 23.2135 69.9785 22.7153 69.6464 22.0749C69.3381 21.4107 69.1009 20.6398 68.9348 19.7621C68.7688 18.8607 68.6857 17.9 68.6857 16.88V16.5598Z" fill="white"/>
</svg>
