<svg width="18" height="16" viewBox="0 0 18 16" fill="none" xmlns="http://www.w3.org/2000/svg">
<path d="M10.3555 2.27393C11.7334 1.02108 13.5179 0.819087 14.8652 1.62939C16.1928 2.42823 16.9296 4.08046 16.6582 5.72607L16.5908 6.05518C16.1782 7.71775 15.1684 9.0608 13.9414 10.3882C12.4954 11.9524 10.8197 13.2721 9.06152 14.5522C6.64863 12.7879 4.38617 10.9868 2.71875 8.58838L2.44434 8.17529C1.83185 7.21049 1.42683 6.2242 1.40527 5.12939C1.3728 3.47912 2.30641 2.00527 3.64746 1.42627H3.64844C4.98658 0.848594 6.65671 1.18452 7.87012 2.37354C8.108 2.60677 8.35266 2.84178 8.62598 3.10693L9.10645 3.57373L9.57031 3.09033C9.80377 2.84679 9.97744 2.64618 10.1631 2.4585L10.3555 2.27393Z" stroke="white" stroke-width="1.33125"/>
</svg>
